<svg width="23" height="23" viewBox="0 0 23 23" fill="none" xmlns="http://www.w3.org/2000/svg">
<path d="M11.5 13.9198L20.0348 22.4538C20.3545 22.7741 20.7468 22.945 21.2118 22.9667C21.6763 22.9889 22.0902 22.8179 22.4538 22.4538C22.8179 22.0902 23 21.6871 23 21.2443C23 20.8015 22.8179 20.3984 22.4538 20.0348L13.9198 11.5L22.4538 2.96518C22.7741 2.6455 22.945 2.25316 22.9667 1.78816C22.9889 1.32374 22.8179 0.90975 22.4538 0.54619C22.0902 0.18206 21.6871 0 21.2443 0C20.8015 0 20.3984 0.18206 20.0348 0.54619L11.5 9.08016L2.96518 0.54619C2.6455 0.225938 2.25316 0.0549849 1.78817 0.0333309C1.32375 0.011107 0.909756 0.18206 0.546196 0.54619C0.182066 0.90975 0 1.31292 0 1.75568C0 2.19845 0.182066 2.60162 0.546196 2.96518L9.08016 11.5L0.546196 20.0348C0.225944 20.3545 0.0549911 20.7468 0.0333371 21.2118C0.0111132 21.6763 0.182066 22.0902 0.546196 22.4538C0.909756 22.8179 1.31292 23 1.75569 23C2.19845 23 2.60162 22.8179 2.96518 22.4538L11.5 13.9198Z" fill="black"/>
</svg>
