<svg width="15" height="15" viewBox="0 0 15 15" fill="none" xmlns="http://www.w3.org/2000/svg">
<path d="M7.5 9.07815L13.0662 14.6438C13.2747 14.8526 13.5305 14.9641 13.8338 14.9783C14.1367 14.9928 14.4067 14.8813 14.6438 14.6438C14.8813 14.4067 15 14.1437 15 13.855C15 13.5662 14.8813 13.3033 14.6438 13.0662L9.07816 7.5L14.6438 1.93381C14.8526 1.72532 14.9641 1.46945 14.9783 1.16619C14.9928 0.863311 14.8813 0.593315 14.6438 0.356211C14.4067 0.118735 14.1437 0 13.855 0C13.5662 0 13.3033 0.118735 13.0662 0.356211L7.5 5.92184L1.93381 0.356211C1.72532 0.147351 1.46945 0.0358597 1.1662 0.0217375C0.863312 0.00724368 0.593319 0.118735 0.356215 0.356211C0.118739 0.593315 0 0.856249 0 1.14501C0 1.43377 0.118739 1.69671 0.356215 1.93381L5.92185 7.5L0.356215 13.0662C0.147355 13.2747 0.0358638 13.5305 0.0217416 13.8338C0.00724773 14.1367 0.118739 14.4067 0.356215 14.6438C0.593319 14.8813 0.856251 15 1.14501 15C1.43377 15 1.69671 14.8813 1.93381 14.6438L7.5 9.07815Z" fill="#500E14"/>
</svg>
