<svg width="86" height="93" viewBox="0 0 86 93" fill="none" xmlns="http://www.w3.org/2000/svg">
<path d="M47.4295 41.2515L47.9776 41.4267C49.5121 39.7307 51.4046 37.545 53.6549 34.8695C55.9011 32.2071 58.3963 29.7106 61.1192 27.4019C63.8421 25.0932 66.6356 23.2386 69.4653 21.8559C72.295 20.4731 75.0692 20.209 77.7839 21.0766C81.5818 22.2904 83.8484 24.0649 84.6009 26.3911C85.3534 28.7173 85.3522 31.0615 84.6014 33.4107C83.7922 35.9427 82.0787 37.8835 79.4609 39.2333C76.8259 40.5919 73.8102 41.6563 70.3623 42.4531C66.9143 43.2499 63.4507 43.8258 59.9498 44.2029C56.436 44.5759 53.3794 45.1381 50.7499 45.8944L51.1229 46.6177C58.536 48.9869 64.4712 50.9845 68.9285 52.6104C73.3858 54.2363 76.8325 55.7838 79.2425 57.2445C81.6614 58.7224 83.0938 60.3165 83.5313 62.053C83.9689 63.7895 83.7625 66.0106 82.8949 68.7252C81.9105 71.8053 80.0701 73.6481 77.3785 74.2838C74.6868 74.9195 72.0685 74.8307 69.5496 74.0257C67.3831 73.3333 65.2838 72.1157 63.2516 70.373C61.2194 68.6304 59.3494 66.695 57.6459 64.5539C55.9424 62.4128 54.2906 60.2451 52.7077 58.0419C51.1247 55.8386 49.6886 53.9412 48.4034 52.3366L47.68 52.7095C48.0709 55.2222 48.5761 57.8722 49.1696 60.651C49.7761 63.434 50.3137 66.2525 50.8038 69.0846C51.2898 71.9298 51.5639 74.8079 51.626 77.719C51.6881 80.6301 51.294 83.4385 50.4264 86.1532C49.6756 88.5024 48.0497 90.1692 45.5446 91.1666C43.0264 92.1598 40.6926 92.3057 38.5261 91.6133C35.9942 90.8041 34.1522 89.7264 32.9955 88.3498C31.8347 86.9863 31.1268 85.4655 30.872 83.7874C30.6172 82.1093 30.6943 80.2928 31.1164 78.342C31.5385 76.3911 32.0686 74.4173 32.7068 72.4205C33.8622 68.8053 35.1314 65.2841 36.5359 61.8348C37.9361 58.3986 39.363 55.014 40.8255 51.6983L40.4525 50.975C38.4941 52.7369 36.1904 54.9494 33.5626 57.5906C30.9218 60.2276 28.1239 62.7712 25.1557 65.2173C22.1745 67.6591 19.1738 69.577 16.1322 70.9927C13.0906 72.4084 10.0297 72.624 6.9627 71.6438C4.43077 70.8346 2.67008 69.3226 1.68951 67.1248C0.695883 64.9229 0.605754 62.5495 1.41495 60.0176C2.22414 57.4856 4.1887 55.5243 7.32167 54.1379C10.4546 52.7514 13.9505 51.6247 17.805 50.7709C21.6596 49.917 25.4208 49.2204 29.0713 48.6898C32.7219 48.1591 35.5404 47.6215 37.505 47.0555L37.132 46.3321C33.9352 45.7132 30.65 44.9653 27.2547 44.0672C23.8552 43.1821 20.4327 42.189 17.0002 41.092C15.3689 40.5706 13.6095 39.8645 11.7133 38.9564C9.80408 38.0441 8.07017 36.9434 6.49852 35.6499C4.91381 34.3523 3.75967 32.8327 3.01886 31.1C2.27805 29.3673 2.25384 27.4177 2.94625 25.2512C3.92646 22.1842 5.72754 19.9693 8.3495 18.6064C10.9673 17.2567 13.9076 17.1032 17.1573 18.1418C19.3238 18.8342 21.4462 20.1598 23.5113 22.1144C25.5765 24.069 27.5436 26.1505 29.434 28.3369C31.3202 30.5364 33.1939 32.775 35.0509 35.0658C36.9079 37.3567 38.5952 39.2336 40.1215 40.7139L40.8448 40.341C40.2245 38.5461 39.5012 36.1285 38.679 33.0752C37.8568 30.0219 37.1285 26.8548 36.4853 23.5566C35.842 20.2584 35.417 17.0875 35.2014 14.0266C34.9857 10.9658 35.1592 8.53274 35.7348 6.73167C36.544 4.19975 38.2116 2.40246 40.7459 1.31372C43.2761 0.23802 45.7179 0.0690473 48.0802 0.824017C51.1472 1.80423 53.1987 3.35168 54.2173 5.47527C55.236 7.59886 55.6852 9.92884 55.5609 12.4783C55.4365 15.0277 54.9536 17.6639 54.086 20.3785L47.4164 41.2473L47.4295 41.2515Z" fill="#F9643E"/>
</svg>
