<svg width="32" height="22" viewBox="0 0 32 22" fill="none" xmlns="http://www.w3.org/2000/svg">
<path d="M1.40625 21.1294C1.00781 21.1294 0.673907 20.9945 0.404532 20.7248C0.134844 20.4555 0 20.1214 0 19.7227C0 19.3242 0.134844 18.9903 0.404532 18.7209C0.673907 18.4519 1.00781 18.3173 1.40625 18.3173H30.4688C30.8672 18.3173 31.2011 18.452 31.4705 18.7214C31.7402 18.9911 31.875 19.3253 31.875 19.7241C31.875 20.1225 31.7402 20.4564 31.4705 20.7258C31.2011 20.9948 30.8672 21.1294 30.4688 21.1294H1.40625ZM1.40625 11.9709C1.00781 11.9709 0.673907 11.8361 0.404532 11.5664C0.134844 11.2967 0 10.9627 0 10.5642C0 10.1655 0.134844 9.83156 0.404532 9.5625C0.673907 9.29312 1.00781 9.15844 1.40625 9.15844H30.4688C30.8672 9.15844 31.2011 9.29328 31.4705 9.56297C31.7402 9.83266 31.875 10.1667 31.875 10.5652C31.875 10.9639 31.7402 11.2978 31.4705 11.5669C31.2011 11.8362 30.8672 11.9709 30.4688 11.9709H1.40625ZM1.40625 2.81203C1.00781 2.81203 0.673907 2.67734 0.404532 2.40797C0.134844 2.13828 0 1.80406 0 1.40531C0 1.00687 0.134844 0.672968 0.404532 0.403593C0.673907 0.134531 1.00781 0 1.40625 0H30.4688C30.8672 0 31.2011 0.134844 31.4705 0.404531C31.7402 0.673906 31.875 1.00797 31.875 1.40672C31.875 1.80516 31.7402 2.13906 31.4705 2.40844C31.2011 2.6775 30.8672 2.81203 30.4688 2.81203H1.40625Z" fill="#500E14"/>
</svg>
