<svg width="33" height="23" viewBox="0 0 33 23" fill="none" xmlns="http://www.w3.org/2000/svg">
<path d="M1.96875 22.0649C1.57031 22.0649 1.23641 21.9301 0.967032 21.6604C0.697344 21.391 0.5625 21.057 0.5625 20.6582C0.5625 20.2598 0.697344 19.9259 0.967032 19.6565C1.23641 19.3874 1.57031 19.2529 1.96875 19.2529H31.0313C31.4297 19.2529 31.7636 19.3876 32.033 19.657C32.3027 19.9266 32.4375 20.2609 32.4375 20.6596C32.4375 21.058 32.3027 21.392 32.033 21.6613C31.7636 21.9304 31.4297 22.0649 31.0313 22.0649H1.96875ZM1.96875 12.9065C1.57031 12.9065 1.23641 12.7716 0.967032 12.502C0.697344 12.2323 0.5625 11.8982 0.5625 11.4998C0.5625 11.101 0.697344 10.7671 0.967032 10.498C1.23641 10.2287 1.57031 10.094 1.96875 10.094H31.0313C31.4297 10.094 31.7636 10.2288 32.033 10.4985C32.3027 10.7682 32.4375 11.1023 32.4375 11.5007C32.4375 11.8995 32.3027 12.2334 32.033 12.5024C31.7636 12.7718 31.4297 12.9065 31.0313 12.9065H1.96875ZM1.96875 3.74758C1.57031 3.74758 1.23641 3.61289 0.967032 3.34352C0.697344 3.07383 0.5625 2.73961 0.5625 2.34086C0.5625 1.94242 0.697344 1.60851 0.967032 1.33914C1.23641 1.07008 1.57031 0.935547 1.96875 0.935547H31.0313C31.4297 0.935547 31.7636 1.07039 32.033 1.34008C32.3027 1.60945 32.4375 1.94352 32.4375 2.34227C32.4375 2.7407 32.3027 3.07461 32.033 3.34398C31.7636 3.61305 31.4297 3.74758 31.0313 3.74758H1.96875Z" fill="white"/>
</svg>
